<svg t="1669186581219" class="icon" viewBox="0 0 1071 1024" version="1.1" xmlns="http://www.w3.org/2000/svg" p-id="4773" width="200" height="200"><path d="M1065.881891 432.47465c-9.417306-22.093954-26.061847-34.551594-50.036686-36.741666-5.333468-0.425131-10.679818-0.206124-16.013285-0.206124H79.344992c-51.711446 0-63.009637 8.064615-79.344992 56.001409v514.022595c4.818157 18.847495 10.473693 37.475983 29.102182 47.666256 8.27074 4.496087 17.584984 7.227235 26.383916 10.78288h960.887301c17.791108-5.333468 35.273029-11.594495 44.587273-29.102182 4.818157-9.10812 7.330297-19.478751 10.885942-29.308305v-514.022596c-1.983947-6.428503-3.336638-13.024482-5.964723-19.092267z m-153.962006 44.484211c0.412249-4.921219 8.373802-12.676647 13.295021-13.088896 18.834612-1.571698 37.888232-0.734318 56.838789-0.631256 9.430189 0 14.235463 5.153109 14.338525 14.544649v27.736608c-0.103062 47.833732 4.921219 42.706389-42.912513 42.706388-9.211182 0.103062-18.525426 0.103062-27.736608 0-9.533251-0.103062-14.338525-5.024281-14.441587-14.441587-0.128828-18.937675-0.914677-37.978411 0.618373-56.825906z m-138.476914 0.412248c0-9.623431 5.230405-14.171049 14.647712-14.171049 18.422364-0.103062 36.94779-0.103062 55.395918 0 10.306217 0.103062 15.072843 5.552475 15.072843 15.601037 0 17.584984-0.103062 35.066905 0.103063 52.548826 0.206124 12.45764-5.758599 17.688046-17.89417 17.159852-8.27074-0.425131-16.528596-0.103062-24.799336-0.103062-9.211182 0-18.422364 0-27.749491-0.103062s-14.647712-4.393025-14.750773-14.029339q-0.193242-28.483808-0.038649-56.903203z m-95.332511-14.171049c8.798933 0 17.481921 0.206124 26.280854 0 10.885942-0.206124 16.438417 5.024281 16.541479 15.704099 0.206124 17.89417 0.206124 35.904285 0 53.901517-0.103062 10.78288-6.067786 15.807161-16.747603 15.601037-9.314244-0.103062-18.525426 0-27.736608 0-44.071962-0.103062-41.22487 4.921219-41.13469-41.97207-0.051531-48.632464-3.29799-43.183051 42.757919-43.286114z m17.481921 304.806381c0 8.78605-0.103062 17.481921 0.103062 26.267972 0.206124 10.885942-5.230405 16.335355-15.807161 16.438417q-27.053821 0.309187-54.017462 0c-10.78288-0.103062-15.601037-5.964723-15.459326-16.747603 0.206124-17.481921 0.206124-35.066905 0-52.548827-0.206124-11.092067 5.449412-16.335355 15.807161-16.541479 17.481921-0.425131 35.066905-0.206124 52.548826-0.103062 12.045392 0.103062 17.584984 6.170848 16.953728 18.422364-0.476663 8.219208-0.167476 16.489948-0.167476 24.760687z m-86.314571-167.050902c46.377979 0 42.603326-1.67476 42.513147 42.603327 0 8.682988-0.206124 17.481921 0 26.164909 0.309187 12.251516-6.067786 17.791108-17.791108 17.89417-16.013285 0.103062-32.026571 0.206124-48.039856 0-15.394912-0.309187-19.671993-4.702212-19.891-20.097124-0.103062-7.729663 0-15.459326 0-23.188989 0.103062-45.012405-4.921219-43.543769 43.234582-43.440707z m-112.080115-122.682636c0.103062-9.9455 5.333468-15.175905 15.459326-15.175905 17.89417 0.103062 35.904285 0.103062 53.901518 0 11.092067 0 15.910223 5.655537 16.013285 16.21941v26.280854c0.206124 48.464988 2.924389 42.603326-43.234582 42.706389-8.78605 0-17.481921-0.206124-26.267972 0-10.151624 0.206124-15.704099-4.59915-15.910223-14.647712-0.309187-18.486778-0.167476-37.012203 0.038648-55.434567z m60.549028 290.673981c0.103062 43.543769 4.186901 42.29414-41.662884 41.765946-8.27074 0-16.541479-0.322069-24.812219 0.103062-13.810331 0.734318-19.56893-6.286793-19.56893-19.259744-0.103062-16.013285-0.103062-32.129633 0-48.155801 0.103062-12.45764 6.067786-18.834612 18.847495-18.73155 16.013285 0.206124 32.129633 0.103062 48.155801 0 13.295021-0.103062 19.994062 5.552475 19.143799 19.465868-0.450897 8.219208-0.038648 16.489948-0.038648 24.709157zM496.84986 601.110133c11.092067 0.103062 17.159852 5.758599 17.159852 17.056789v26.16491c0.103062 44.175025 3.980776 43.440707-43.543768 43.440707-45.746723-0.103062-42.809451 1.468636-42.603327-42.912513 0-9.211182-0.103062-18.422364 0.103062-27.633546 0.206124-10.576756 5.964723-16.013285 16.438417-16.116347q26.255089-0.167476 52.445764 0z m-138.064665-121.098055c0-11.195129 5.34635-17.05679 17.069673-16.850666 17.584984 0.206124 35.066905 0.103062 52.548826 0 10.989004-0.103062 16.116348 5.153109 16.013285 16.013285-0.103062 17.584984-0.206124 35.054022 0 52.548827 0.206124 11.594495-5.153109 16.953728-16.747603 16.644541-8.27074-0.206124-16.541479 0-24.799336 0-9.211182 0-18.525426-0.103062-27.736608 0.103062-10.989004 0.206124-16.21941-5.333468-16.335354-15.910223-0.077297-17.597866-0.077297-35.079788 0.025765-52.561709z m61.347759 314.442694c-0.103062 10.576756-5.758599 16.232292-16.232292 16.322472-17.89417 0.206124-35.904285 0.103062-53.798455 0.103062-10.151624 0-15.807161-5.758599-16.116348-15.072843-0.734318-18.422364-0.631256-36.844727-0.103062-55.267091 0.322069-10.306217 6.595979-15.807161 17.05679-15.807161 16.438417-0.103062 32.979896-0.322069 49.40543 0 15.601037 0.206124 19.465868 4.393025 19.671992 20.200186 0.103062 7.729663 0 15.459326 0 23.188989 0.038648 8.721637 0.14171 17.469039 0.141711 26.30662z m-86.894296-193.666709c44.484211 0 43.543769-2.306016 43.015575 42.706389q-0.154593 12.406109 0 24.812218c0.103062 13.501145-6.595979 19.465868-19.787937 19.324158-15.459326-0.206124-31.086128 0.103062-46.57122-0.103062-15.278967-0.206124-19.891-4.818157-20.200186-19.994062-0.103062-7.845608 0-15.601037 0-23.343582-0.579725-45.811137-2.254485-43.298996 43.543768-43.402059z m-112.080114-123.094884c0.206124-9.739375 5.861661-14.763656 16.116347-14.647712 17.05679 0.309187 34.0234 0.425131 51.08019 0 12.985834-0.322069 18.950557 5.333468 18.422364 18.319302-0.322069 7.729663-0.103062 15.588154-0.103062 23.343582-0.103062 9.726493 0.103062 19.465868 0 28.999119s-5.153109 14.441587-14.544649 14.441588c-18.525426 0.103062-36.94779 0-55.473216 0.103062-9.417306 0.103062-15.175905-4.496087-15.382029-13.707269-0.515311-18.96344-0.515311-37.901115-0.115945-56.851672z m-138.579977 0.83738c0.425131-10.048562 6.286793-15.910223 17.275797-15.394912 8.682988 0.425131 17.481921 0.103062 26.267972 0.103062s17.584984 0.103062 26.280854-0.103062c10.989004-0.206124 16.21941 5.552475 16.335355 16.013285q0.309187 27.053821 0 54.004579c-0.206124 9.842438-5.34635 15.175905-15.601037 15.175906-18.035881 0-36.007347-0.206124-54.004579 0.103062-10.306217 0.206124-16.013285-4.921219-16.438417-14.441588-0.669904-18.512543-0.669904-37.037969-0.103062-55.460332z m86.456282 389.690964c-0.309187 7.729663-0.103062 15.459326-0.103062 23.18899 0.103062 45.527716 3.658707 43.543769-43.028458 43.543768-43.801424-0.103062-43.543769 3.246458-43.646831-43.801424-0.103062-48.349043 1.67476-42.397202 43.028458-42.513147 8.257857 0 16.425534 0.206124 24.696273 0 13.52691-0.296304 19.646227 6.18373 19.066503 19.594696z m-17.250032-200.546108c0.425131-7.729663 0.103062-15.459326 0.103063-23.18899-0.206124-45.218529-3.761769-43.801424 43.13152-43.543768 45.089701 0.103062 43.337644-3.143396 43.028457 43.801424q-0.154593 11.594495 0 23.188989c0.206124 13.191958-5.964723 19.671993-19.324157 19.56893-16.013285-0.103062-32.026571 0-48.052739 0-13.449614 0.064414-19.517399-6.428503-18.886144-19.826585z m44.071963 127.075661q-0.46378-27.053821 0-54.017463c0.206124-10.679818 6.595979-15.910223 16.953728-16.013285 17.05679-0.206124 34.0234 0 51.08019-0.103062 12.985834-0.103062 18.525426 6.441386 18.03588 19.156682-0.322069 7.729663-0.103062 15.601037-0.103062 23.343582 0.103062 46.893289 3.658707 43.801424-43.015575 43.646831h-26.280854c-10.692701 0-16.477065-5.655537-16.68319-16.013285z m525.15331 121.935435c0.103062 12.148454-5.758599 18.035881-17.688046 18.03588-16.541479 0.103062-33.082958 0.103062-49.611554 0.103063H248.212364c-25.121405 0-27.633546-2.512141-27.633545-27.427422-0.103062-12.135571-0.206124-24.284025 0-36.419596 0.322069-18.525426 3.980776-22.197016 22.300078-22.197015h228.991269q112.891729 0 226.092645-0.103063c19.56893 0 22.918451 3.349521 23.021513 22.815389 0.025766 15.047077-0.206124 30.11992 0.025766 45.192764z m0.940442-229.236042c-12.354578-0.103062-18.73155-6.18373-18.216239-19.053619 0.412249-8.167677 0.103062-16.425534 0.103062-24.696274 0-8.682988 0-17.378859-0.103062-26.267972 0-10.679818 5.758599-16.232292 16.116347-16.438416 18.035881-0.309187 36.007347-0.206124 53.901518 0 9.842438 0.103062 15.601037 5.43653 15.807161 15.278967 0.425131 18.422364 0.309187 36.844727 0.103062 55.267091-0.103062 10.679818-6.441386 15.807161-16.747604 15.910223-16.96661 0.115945-34.0234 0.115945-50.977128 0.012883z m28.689933 102.791637c-0.103062-15.072843-0.206124-30.145686 0-45.21853 0.103062-15.704099 3.980776-19.994062 19.787937-20.303248 20.934504-0.425131 41.765946-0.103062 62.700451-0.206124a57.057796 57.057796 0 0 0 8.476864-1.288277v-96.157009c0-23.034396 3.143396-26.16491 25.855723-26.16491 27.736608 0 19.246861-0.103062 46.983469 0 16.953728 0.103062 21.462698 4.496087 21.462697 21.771885q0.154593 83.05523 0 166.187756c-0.103062 17.378859-4.496087 21.771884-21.359635 21.771884-59.763178 0.103062-83.403065 0.103062-143.179126 0-16.567245 0.025766-20.651083-3.955011-20.72838-20.393427z m92.421005 144.287044c-18.035881 0.425131-36.007347 0.322069-54.017462 0-10.306217-0.103062-16.116348-5.449412-15.704099-16.541479 0.322069-8.78605 0.103062-17.481921 0.103062-26.267972 0.206124-47.099414-4.921219-43.13152 42.912513-43.028458 8.78605 0 17.481921-0.103062 26.267972 0 10.679818 0.103062 15.910223 5.655537 15.910223 16.438417 0 17.481921-0.103062 35.066905 0.103062 52.548826 0.103062 10.834411-5.127343 16.696072-15.601037 16.91508z m153.446695-16.850666c0.425131 10.885942-5.024281 16.644541-15.459326 16.850666-18.035881 0.322069-36.071761 0.425131-54.017462 0-10.460811-0.206124-16.116348-5.655537-15.807161-16.644541 0.206124-9.211182 0-18.525426 0-27.736608-0.103062-44.80628-3.658707-41.559822 41.97207-41.559822 47.666256 0.103062 43.337644-4.186901 43.337645 42.809451-0.038648 8.850464-0.360718 17.546335-0.038649 26.345268z" fill="" p-id="4774"></path><path d="M321.077322 159.243942c-33.636917 33.224668-85.515839-18.641371-51.878922-51.878922 30.545052-30.145686 66.127268-55.846816 105.265128-73.612158C515.465466-30.287397 682.220064-1.777823 792.702715 107.377903c33.6498 33.250434-18.254888 85.090708-51.878922 51.878922-15.948871-15.75563-28.831643-26.461213-45.73384-37.55328q-13.179076-8.64434-27.144-16.013285-6.918048-3.645824-13.99069-6.956697-3.529879-1.648995-7.085525-3.220693l-1.983947-0.811614A342.514254 342.514254 0 0 0 585.831165 77.296631q-7.523539-1.481519-15.098608-2.576555c5.951841 0.888911-7.922905-0.850263-9.236948-0.97909q-15.227436-1.391339-30.532169-1.39134t-30.532169 1.39134c-1.288277 0.115945-15.201671 1.855119-9.236947 0.97909q-7.57507 1.120801-15.098609 2.576555a342.514254 342.514254 0 0 0-59.11904 17.404625l-1.983947 0.811614q-3.568528 1.571698-7.085524 3.220693-7.072642 3.310872-13.99069 6.956697-13.913394 7.420477-27.118235 16.013285c-16.902197 11.092067-29.772086 21.79765-45.720957 37.540397z" fill="#A6BAFB" p-id="4775"></path><path d="M407.546486 245.713107c-33.739979 33.108724-85.631784-18.757316-51.878922-51.878922 96.90421-95.061973 253.661777-95.061973 350.565987 0 33.778628 33.134489-18.151825 85.026294-51.878923 51.878922-10.203155-10.009914-16.902197-15.601037-26.91211-22.093954q-8.244974-5.34635-16.96661-9.919734a106.360164 106.360164 0 0 0-12.457641-5.938958 217.074705 217.074705 0 0 0-36.922024-10.602521 162.722291 162.722291 0 0 0-30.145686-2.447727q-9.546134 0-19.066502 0.850263c-1.880885 0.167476-8.618574 1.043505-3.529879 0.296304-3.156279 0.46378-6.299675 1.043505-9.417307 1.67476a216.327504 216.327504 0 0 0-35.041139 10.228921c-17.907053 6.866517-40.194248 22.119719-56.336361 37.952646z" fill="#9185F7" p-id="4776"></path><path d="M619.764386 280.290466c34.25529 32.709358-17.739577 84.510983-51.878922 51.827391-21.733236-20.779911-52.265405-20.612435-73.882696 0-34.152228 32.644944-86.069798-19.182447-51.878922-51.878922a127.694034 127.694034 0 0 1 177.64054 0.051531z m316.104572 342.372544c0-17.275797-4.496087-21.668822-21.462698-21.771885-27.736608-0.103062-19.246861 0-46.983469 0-22.712327 0-25.855723 3.143396-25.855723 26.16491v96.195657a57.057796 57.057796 0 0 1-8.476863 1.288277c-20.934504 0.103062-41.765946-0.206124-62.700451 0.206125-15.807161 0.309187-19.671993 4.612032-19.787937 20.303248-0.206124 15.072843-0.103062 30.145686 0 45.218529 0.103062 16.438417 4.186901 20.419193 20.72838 20.419193 59.763178 0.103062 83.403065 0.103062 143.179125 0 16.850666 0 21.256573-4.393025 21.359636-21.771884q0.154593-83.080995 0-166.25217z" fill="#7E52F3" p-id="4777"></path></svg>