<svg t="1669111160338" class="icon" viewBox="0 0 1024 1024" version="1.1" xmlns="http://www.w3.org/2000/svg" p-id="12747" width="200" height="200"><path d="M402.746 146.746l-320 320c-24.994 24.992-24.994 65.516 0 90.508l320 320c24.994 24.992 65.516 24.992 90.51 0 24.996-24.992 24.996-65.516 0-90.508L282.508 576 896 576c35.346 0 64-28.652 64-64 0-35.346-28.654-64-64-64L282.508 448l210.746-210.746C505.75 224.758 512 208.378 512 192s-6.248-32.758-18.744-45.254C468.26 121.752 427.74 121.752 402.746 146.746z" p-id="12748" fill="#525C6F"></path></svg>